<svg width="27" height="27" viewBox="0 0 27 27" fill="none" xmlns="http://www.w3.org/2000/svg">
<path fill-rule="evenodd" clip-rule="evenodd" d="M23.2498 11.1423H3.19775C2.732 11.1423 2.354 10.7643 2.354 10.2986C2.354 9.83283 2.732 9.45483 3.19775 9.45483H23.2498C23.7155 9.45483 24.0935 9.83283 24.0935 10.2986C24.0935 10.7643 23.7155 11.1423 23.2498 11.1423Z" fill="white"/>
<path fill-rule="evenodd" clip-rule="evenodd" d="M18.2262 15.5358C17.7604 15.5358 17.3779 15.1578 17.3779 14.692C17.3779 14.2263 17.7503 13.8483 18.2161 13.8483H18.2262C18.6919 13.8483 19.0699 14.2263 19.0699 14.692C19.0699 15.1578 18.6919 15.5358 18.2262 15.5358Z" fill="white"/>
<path fill-rule="evenodd" clip-rule="evenodd" d="M13.234 15.5358C12.7682 15.5358 12.3857 15.1578 12.3857 14.692C12.3857 14.2263 12.7581 13.8483 13.2239 13.8483H13.234C13.6997 13.8483 14.0777 14.2263 14.0777 14.692C14.0777 15.1578 13.6997 15.5358 13.234 15.5358Z" fill="white"/>
<path fill-rule="evenodd" clip-rule="evenodd" d="M8.2317 15.5358C7.76595 15.5358 7.38232 15.1578 7.38232 14.692C7.38232 14.2263 7.75582 13.8483 8.22157 13.8483H8.2317C8.69745 13.8483 9.07545 14.2263 9.07545 14.692C9.07545 15.1578 8.69745 15.5358 8.2317 15.5358Z" fill="white"/>
<path fill-rule="evenodd" clip-rule="evenodd" d="M18.2262 19.9083C17.7604 19.9083 17.3779 19.5303 17.3779 19.0646C17.3779 18.5988 17.7503 18.2208 18.2161 18.2208H18.2262C18.6919 18.2208 19.0699 18.5988 19.0699 19.0646C19.0699 19.5303 18.6919 19.9083 18.2262 19.9083Z" fill="white"/>
<path fill-rule="evenodd" clip-rule="evenodd" d="M13.234 19.9083C12.7682 19.9083 12.3857 19.5303 12.3857 19.0646C12.3857 18.5988 12.7581 18.2208 13.2239 18.2208H13.234C13.6997 18.2208 14.0777 18.5988 14.0777 19.0646C14.0777 19.5303 13.6997 19.9083 13.234 19.9083Z" fill="white"/>
<path fill-rule="evenodd" clip-rule="evenodd" d="M8.2317 19.9083C7.76595 19.9083 7.38232 19.5303 7.38232 19.0646C7.38232 18.5988 7.75582 18.2208 8.22157 18.2208H8.2317C8.69745 18.2208 9.07545 18.5988 9.07545 19.0646C9.07545 19.5303 8.69745 19.9083 8.2317 19.9083Z" fill="white"/>
<path fill-rule="evenodd" clip-rule="evenodd" d="M17.7676 6.51487C17.3018 6.51487 16.9238 6.13687 16.9238 5.67112V1.96875C16.9238 1.503 17.3018 1.125 17.7676 1.125C18.2333 1.125 18.6113 1.503 18.6113 1.96875V5.67112C18.6113 6.13687 18.2333 6.51487 17.7676 6.51487Z" fill="white"/>
<path fill-rule="evenodd" clip-rule="evenodd" d="M8.67969 6.51487C8.21394 6.51487 7.83594 6.13687 7.83594 5.67112V1.96875C7.83594 1.503 8.21394 1.125 8.67969 1.125C9.14544 1.125 9.52344 1.503 9.52344 1.96875V5.67112C9.52344 6.13687 9.14544 6.51487 8.67969 6.51487Z" fill="white"/>
<mask id="mask0_12_31" style="mask-type:luminance" maskUnits="userSpaceOnUse" x="2" y="2" width="23" height="24">
<path fill-rule="evenodd" clip-rule="evenodd" d="M2.25 2.90149H24.1875V25.3125H2.25V2.90149Z" fill="white"/>
</mask>
<g mask="url(#mask0_12_31)">
<path fill-rule="evenodd" clip-rule="evenodd" d="M8.46112 4.58899C5.544 4.58899 3.9375 6.14486 3.9375 8.96974V19.1499C3.9375 22.0366 5.544 23.6251 8.46112 23.6251H17.9764C20.8935 23.6251 22.5 22.0659 22.5 19.2354V8.96974C22.5045 7.58036 22.131 6.50036 21.3896 5.75786C20.6269 4.99286 19.4513 4.58899 17.9865 4.58899H8.46112ZM17.9764 25.3126H8.46112C4.6305 25.3126 2.25 22.9512 2.25 19.1499V8.96974C2.25 5.22574 4.6305 2.90149 8.46112 2.90149H17.9865C19.9091 2.90149 21.4988 3.47749 22.5844 4.56536C23.6385 5.62399 24.1931 7.14611 24.1875 8.97199V19.2354C24.1875 22.9839 21.807 25.3126 17.9764 25.3126Z" fill="white"/>
</g>
</svg>
