<svg width="40" height="40" viewBox="0 0 40 40" fill="none" xmlns="http://www.w3.org/2000/svg">
<rect width="39.9844" height="40" rx="10" fill="white"/>
<path fill-rule="evenodd" clip-rule="evenodd" d="M0 6.25C0 2.79822 2.79713 0 6.24756 0H33.7368C37.1873 0 39.9844 2.79822 39.9844 6.25V33.75C39.9844 37.2018 37.1873 40 33.7368 40H6.24756C2.79713 40 0 37.2018 0 33.75V6.25ZM19.9922 10C25.49 10 29.9883 14.5 29.9883 20C29.9883 25 26.3647 29.25 21.3667 30V22.875H23.7407L24.2405 20H21.4916V18.125C21.4916 17.375 21.8665 16.625 23.116 16.625H24.3655V14.125C24.3655 14.125 23.2409 13.875 22.1164 13.875C19.8672 13.875 18.3678 15.25 18.3678 17.75V20H15.8688V22.875H18.3678V29.875C13.6197 29.125 9.9961 25 9.9961 20C9.9961 14.5 14.4943 10 19.9922 10Z" fill="black"/>
</svg>
