<svg width="41" height="40" viewBox="0 0 41 40" fill="none" xmlns="http://www.w3.org/2000/svg">
<rect x="0.974609" width="39.9844" height="40" rx="10" fill="white"/>
<path d="M20.9668 23.5C19.0925 23.5 17.4682 22 17.4682 20C17.4682 18.125 18.9676 16.5 20.9668 16.5C22.8411 16.5 24.4654 18 24.4654 20C24.4654 21.875 22.8411 23.5 20.9668 23.5Z" fill="black"/>
<path fill-rule="evenodd" clip-rule="evenodd" d="M25.2151 11.5H16.7185C15.7189 11.625 15.219 11.75 14.8442 11.875C14.3444 12 13.9695 12.25 13.5947 12.625C13.2981 12.9217 13.1579 13.2185 12.9885 13.5771C12.9439 13.6717 12.8971 13.7707 12.845 13.875C12.8256 13.933 12.8033 13.994 12.7794 14.0594C12.6487 14.4167 12.4701 14.9047 12.4701 15.75V24.25C12.5951 25.25 12.72 25.75 12.845 26.125C12.9699 26.625 13.2198 27 13.5947 27.375C13.8913 27.6717 14.1879 27.8119 14.5464 27.9814C14.641 28.0261 14.7399 28.0728 14.8442 28.125C14.9022 28.1443 14.9632 28.1667 15.0285 28.1906C15.3856 28.3214 15.8735 28.5 16.7185 28.5H25.2151C26.2148 28.375 26.7146 28.25 27.0894 28.125C27.5892 28 27.9641 27.75 28.3389 27.375C28.6355 27.0783 28.7757 26.7815 28.9451 26.4229C28.9897 26.3283 29.0365 26.2293 29.0886 26.125C29.108 26.067 29.1303 26.006 29.1542 25.9406C29.2849 25.5833 29.4635 25.0953 29.4635 24.25V15.75C29.3385 14.75 29.2136 14.25 29.0886 13.875C28.9637 13.375 28.7138 13 28.3389 12.625C28.0423 12.3283 27.7457 12.1881 27.3872 12.0186C27.2927 11.974 27.1935 11.9271 27.0894 11.875C27.0314 11.8557 26.9704 11.8333 26.9051 11.8094C26.548 11.6786 26.0601 11.5 25.2151 11.5ZM20.9668 14.625C17.968 14.625 15.5939 17 15.5939 20C15.5939 23 17.968 25.375 20.9668 25.375C23.9656 25.375 26.3397 23 26.3397 20C26.3397 17 23.9656 14.625 20.9668 14.625ZM27.7142 14.5C27.7142 15.1904 27.1547 15.75 26.4647 15.75C25.7746 15.75 25.2151 15.1904 25.2151 14.5C25.2151 13.8096 25.7746 13.25 26.4647 13.25C27.1547 13.25 27.7142 13.8096 27.7142 14.5Z" fill="black"/>
<path fill-rule="evenodd" clip-rule="evenodd" d="M0.974609 6.25C0.974609 2.79822 3.77174 0 7.22217 0H34.7114C38.1619 0 40.959 2.79822 40.959 6.25V33.75C40.959 37.2018 38.1619 40 34.7114 40H7.22217C3.77174 40 0.974609 37.2018 0.974609 33.75V6.25ZM16.7185 9.625H25.2151C26.3397 9.75 27.0894 9.875 27.7142 10.125C28.4639 10.5 28.9637 10.75 29.5884 11.375C30.2132 12 30.588 12.625 30.8379 13.25C31.0878 13.875 31.3377 14.625 31.3377 15.75V24.25C31.2128 25.375 31.0878 26.125 30.8379 26.75C30.4631 27.5 30.2132 28 29.5884 28.625C28.9637 29.25 28.3389 29.625 27.7142 29.875C27.0894 30.125 26.3397 30.375 25.2151 30.375H16.7185C15.5939 30.25 14.8442 30.125 14.2194 29.875C13.4697 29.5 12.9699 29.25 12.3452 28.625C11.7204 28 11.3456 27.375 11.0957 26.75C10.8458 26.125 10.5959 25.375 10.5959 24.25V15.75C10.7208 14.625 10.8458 13.875 11.0957 13.25C11.4705 12.5 11.7204 12 12.3452 11.375C12.9699 10.75 13.5947 10.375 14.2194 10.125C14.8442 9.875 15.5939 9.625 16.7185 9.625Z" fill="black"/>
</svg>
