<svg width="425" height="148" viewBox="0 0 425 148" fill="none" xmlns="http://www.w3.org/2000/svg">
<path d="M1.16797 147L84.135 79H424.999" stroke="white"/>
<path d="M98.4909 5.54545V23H94.8431V8.54545H87.7863V23H84.1386V5.54545H98.4909ZM118.044 14.2727C118.044 16.1761 117.683 17.7955 116.962 19.1307C116.246 20.4659 115.269 21.4858 114.03 22.1903C112.797 22.8892 111.411 23.2386 109.871 23.2386C108.32 23.2386 106.928 22.8864 105.695 22.1818C104.462 21.4773 103.487 20.4574 102.771 19.1222C102.055 17.7869 101.698 16.1705 101.698 14.2727C101.698 12.3693 102.055 10.75 102.771 9.41477C103.487 8.07955 104.462 7.0625 105.695 6.36364C106.928 5.65909 108.32 5.30682 109.871 5.30682C111.411 5.30682 112.797 5.65909 114.03 6.36364C115.269 7.0625 116.246 8.07955 116.962 9.41477C117.683 10.75 118.044 12.3693 118.044 14.2727ZM114.303 14.2727C114.303 13.0398 114.118 12 113.749 11.1534C113.385 10.3068 112.871 9.66477 112.206 9.22727C111.541 8.78977 110.763 8.57102 109.871 8.57102C108.979 8.57102 108.2 8.78977 107.536 9.22727C106.871 9.66477 106.354 10.3068 105.984 11.1534C105.621 12 105.439 13.0398 105.439 14.2727C105.439 15.5057 105.621 16.5455 105.984 17.392C106.354 18.2386 106.871 18.8807 107.536 19.3182C108.2 19.7557 108.979 19.9744 109.871 19.9744C110.763 19.9744 111.541 19.7557 112.206 19.3182C112.871 18.8807 113.385 18.2386 113.749 17.392C114.118 16.5455 114.303 15.5057 114.303 14.2727ZM119.832 23V20.0341L120.326 19.9915C120.962 19.9403 121.477 19.6989 121.869 19.267C122.261 18.8295 122.553 18.1335 122.747 17.179C122.945 16.2188 123.073 14.929 123.13 13.3097L123.42 5.54545H135.266V23H131.678V8.50284H126.846L126.573 14.5795C126.482 16.5341 126.249 18.1307 125.874 19.3693C125.505 20.608 124.914 21.5227 124.102 22.1136C123.295 22.7045 122.19 23 120.786 23H119.832ZM138.309 23V5.54545H141.999V12.7472H149.491V5.54545H153.173V23H149.491V15.7898H141.999V23H138.309ZM172.255 14.2727C172.255 16.1761 171.894 17.7955 171.173 19.1307C170.457 20.4659 169.479 21.4858 168.241 22.1903C167.008 22.8892 165.622 23.2386 164.082 23.2386C162.531 23.2386 161.139 22.8864 159.906 22.1818C158.673 21.4773 157.698 20.4574 156.982 19.1222C156.266 17.7869 155.908 16.1705 155.908 14.2727C155.908 12.3693 156.266 10.75 156.982 9.41477C157.698 8.07955 158.673 7.0625 159.906 6.36364C161.139 5.65909 162.531 5.30682 164.082 5.30682C165.622 5.30682 167.008 5.65909 168.241 6.36364C169.479 7.0625 170.457 8.07955 171.173 9.41477C171.894 10.75 172.255 12.3693 172.255 14.2727ZM168.514 14.2727C168.514 13.0398 168.329 12 167.96 11.1534C167.596 10.3068 167.082 9.66477 166.417 9.22727C165.752 8.78977 164.974 8.57102 164.082 8.57102C163.19 8.57102 162.411 8.78977 161.747 9.22727C161.082 9.66477 160.565 10.3068 160.195 11.1534C159.832 12 159.65 13.0398 159.65 14.2727C159.65 15.5057 159.832 16.5455 160.195 17.392C160.565 18.2386 161.082 18.8807 161.747 19.3182C162.411 19.7557 163.19 19.9744 164.082 19.9744C164.974 19.9744 165.752 19.7557 166.417 19.3182C167.082 18.8807 167.596 18.2386 167.96 17.392C168.329 16.5455 168.514 15.5057 168.514 14.2727ZM174.989 23V5.54545H186.75V8.58807H178.679V12.7472H186.145V15.7898H178.679V19.9574H186.784V23H174.989ZM195.239 5.54545H199.79L204.597 17.2727H204.801L209.608 5.54545H214.159V23H210.58V11.6392H210.435L205.918 22.9148H203.48L198.963 11.5966H198.818V23H195.239V5.54545ZM217.2 23V5.54545H228.961V8.58807H220.89V12.7472H228.356V15.7898H220.89V19.9574H228.995V23H217.2ZM231.895 23V5.54545H235.585V12.7472H243.077V5.54545H246.759V23H243.077V15.7898H235.585V23H231.895ZM253.492 5.54545V23H249.801V5.54545H253.492ZM257.242 13.1392V16.0199H251.668V13.1392H257.242ZM272.438 14.2727C272.438 16.1761 272.077 17.7955 271.355 19.1307C270.639 20.4659 269.662 21.4858 268.423 22.1903C267.19 22.8892 265.804 23.2386 264.264 23.2386C262.713 23.2386 261.321 22.8864 260.088 22.1818C258.855 21.4773 257.881 20.4574 257.165 19.1222C256.449 17.7869 256.091 16.1705 256.091 14.2727C256.091 12.3693 256.449 10.75 257.165 9.41477C257.881 8.07955 258.855 7.0625 260.088 6.36364C261.321 5.65909 262.713 5.30682 264.264 5.30682C265.804 5.30682 267.19 5.65909 268.423 6.36364C269.662 7.0625 270.639 8.07955 271.355 9.41477C272.077 10.75 272.438 12.3693 272.438 14.2727ZM268.696 14.2727C268.696 13.0398 268.511 12 268.142 11.1534C267.778 10.3068 267.264 9.66477 266.6 9.22727C265.935 8.78977 265.156 8.57102 264.264 8.57102C263.372 8.57102 262.594 8.78977 261.929 9.22727C261.264 9.66477 260.747 10.3068 260.378 11.1534C260.014 12 259.832 13.0398 259.832 14.2727C259.832 15.5057 260.014 16.5455 260.378 17.392C260.747 18.2386 261.264 18.8807 261.929 19.3182C262.594 19.7557 263.372 19.9744 264.264 19.9744C265.156 19.9744 265.935 19.7557 266.6 19.3182C267.264 18.8807 267.778 18.2386 268.142 17.392C268.511 16.5455 268.696 15.5057 268.696 14.2727ZM296.116 11.6562H292.383C292.315 11.1733 292.176 10.7443 291.965 10.3693C291.755 9.98864 291.485 9.66477 291.156 9.39773C290.826 9.13068 290.445 8.92614 290.014 8.78409C289.587 8.64205 289.124 8.57102 288.624 8.57102C287.721 8.57102 286.934 8.79545 286.264 9.24432C285.593 9.6875 285.073 10.3352 284.704 11.1875C284.335 12.0341 284.15 13.0625 284.15 14.2727C284.15 15.517 284.335 16.5625 284.704 17.4091C285.079 18.2557 285.602 18.8949 286.272 19.3267C286.943 19.7585 287.718 19.9744 288.599 19.9744C289.093 19.9744 289.551 19.9091 289.971 19.7784C290.397 19.6477 290.775 19.4574 291.104 19.2074C291.434 18.9517 291.707 18.642 291.923 18.2784C292.144 17.9148 292.298 17.5 292.383 17.0341L296.116 17.0511C296.019 17.8523 295.778 18.625 295.391 19.3693C295.011 20.108 294.497 20.7699 293.849 21.3551C293.207 21.9347 292.44 22.3949 291.548 22.7358C290.661 23.071 289.658 23.2386 288.539 23.2386C286.982 23.2386 285.59 22.8864 284.363 22.1818C283.141 21.4773 282.176 20.4574 281.465 19.1222C280.761 17.7869 280.408 16.1705 280.408 14.2727C280.408 12.3693 280.766 10.75 281.482 9.41477C282.198 8.07955 283.17 7.0625 284.397 6.36364C285.624 5.65909 287.005 5.30682 288.539 5.30682C289.551 5.30682 290.488 5.44886 291.352 5.73295C292.221 6.01705 292.991 6.43182 293.661 6.97727C294.332 7.51704 294.877 8.17898 295.298 8.96307C295.724 9.74716 295.997 10.6449 296.116 11.6562ZM314.802 14.2727C314.802 16.1761 314.441 17.7955 313.72 19.1307C313.004 20.4659 312.026 21.4858 310.788 22.1903C309.555 22.8892 308.168 23.2386 306.629 23.2386C305.078 23.2386 303.685 22.8864 302.453 22.1818C301.22 21.4773 300.245 20.4574 299.529 19.1222C298.813 17.7869 298.455 16.1705 298.455 14.2727C298.455 12.3693 298.813 10.75 299.529 9.41477C300.245 8.07955 301.22 7.0625 302.453 6.36364C303.685 5.65909 305.078 5.30682 306.629 5.30682C308.168 5.30682 309.555 5.65909 310.788 6.36364C312.026 7.0625 313.004 8.07955 313.72 9.41477C314.441 10.75 314.802 12.3693 314.802 14.2727ZM311.06 14.2727C311.06 13.0398 310.876 12 310.506 11.1534C310.143 10.3068 309.629 9.66477 308.964 9.22727C308.299 8.78977 307.521 8.57102 306.629 8.57102C305.737 8.57102 304.958 8.78977 304.293 9.22727C303.629 9.66477 303.112 10.3068 302.742 11.1534C302.379 12 302.197 13.0398 302.197 14.2727C302.197 15.5057 302.379 16.5455 302.742 17.392C303.112 18.2386 303.629 18.8807 304.293 19.3182C304.958 19.7557 305.737 19.9744 306.629 19.9744C307.521 19.9744 308.299 19.7557 308.964 19.3182C309.629 18.8807 310.143 18.2386 310.506 17.392C310.876 16.5455 311.06 15.5057 311.06 14.2727ZM323.09 23V5.54545H330.079C331.363 5.54545 332.434 5.7358 333.292 6.11648C334.15 6.49716 334.795 7.02557 335.227 7.7017C335.658 8.37216 335.874 9.14489 335.874 10.0199C335.874 10.7017 335.738 11.3011 335.465 11.8182C335.193 12.3295 334.818 12.75 334.34 13.0795C333.869 13.4034 333.329 13.6335 332.721 13.7699V13.9403C333.386 13.9687 334.008 14.1562 334.587 14.5028C335.173 14.8494 335.647 15.3352 336.011 15.9602C336.374 16.5795 336.556 17.3182 336.556 18.1761C336.556 19.1023 336.326 19.929 335.866 20.6562C335.411 21.3778 334.738 21.9489 333.846 22.3693C332.954 22.7898 331.854 23 330.548 23H323.09ZM326.781 19.983H329.789C330.818 19.983 331.568 19.7869 332.039 19.3949C332.511 18.9972 332.747 18.4687 332.747 17.8097C332.747 17.3267 332.63 16.9006 332.397 16.5312C332.164 16.1619 331.832 15.8722 331.4 15.6619C330.974 15.4517 330.465 15.3466 329.874 15.3466H326.781V19.983ZM326.781 12.8494H329.516C330.022 12.8494 330.471 12.7614 330.863 12.5852C331.261 12.4034 331.573 12.1477 331.801 11.8182C332.033 11.4886 332.15 11.0938 332.15 10.6335C332.15 10.0028 331.926 9.49432 331.477 9.10795C331.033 8.72159 330.403 8.52841 329.585 8.52841H326.781V12.8494ZM354.358 11.6562H350.625C350.557 11.1733 350.418 10.7443 350.207 10.3693C349.997 9.98864 349.727 9.66477 349.398 9.39773C349.068 9.13068 348.688 8.92614 348.256 8.78409C347.83 8.64205 347.367 8.57102 346.867 8.57102C345.963 8.57102 345.176 8.79545 344.506 9.24432C343.835 9.6875 343.315 10.3352 342.946 11.1875C342.577 12.0341 342.392 13.0625 342.392 14.2727C342.392 15.517 342.577 16.5625 342.946 17.4091C343.321 18.2557 343.844 18.8949 344.514 19.3267C345.185 19.7585 345.96 19.9744 346.841 19.9744C347.335 19.9744 347.793 19.9091 348.213 19.7784C348.639 19.6477 349.017 19.4574 349.347 19.2074C349.676 18.9517 349.949 18.642 350.165 18.2784C350.386 17.9148 350.54 17.5 350.625 17.0341L354.358 17.0511C354.261 17.8523 354.02 18.625 353.634 19.3693C353.253 20.108 352.739 20.7699 352.091 21.3551C351.449 21.9347 350.682 22.3949 349.79 22.7358C348.903 23.071 347.901 23.2386 346.781 23.2386C345.225 23.2386 343.832 22.8864 342.605 22.1818C341.384 21.4773 340.418 20.4574 339.707 19.1222C339.003 17.7869 338.651 16.1705 338.651 14.2727C338.651 12.3693 339.009 10.75 339.725 9.41477C340.44 8.07955 341.412 7.0625 342.639 6.36364C343.867 5.65909 345.247 5.30682 346.781 5.30682C347.793 5.30682 348.73 5.44886 349.594 5.73295C350.463 6.01705 351.233 6.43182 351.903 6.97727C352.574 7.51704 353.119 8.17898 353.54 8.96307C353.966 9.74716 354.239 10.6449 354.358 11.6562ZM357.004 23V5.54545H368.766V8.58807H360.695V12.7472H368.161V15.7898H360.695V19.9574H368.8V23H357.004ZM371.7 5.54545H376.251L381.058 17.2727H381.262L386.069 5.54545H390.62V23H387.041V11.6392H386.896L382.379 22.9148H379.941L375.424 11.5966H375.279V23H371.7V5.54545ZM393.661 5.54545H397.342V16.5227H397.487L405.03 5.54545H408.26V23H404.57V12.0142H404.442L396.857 23H393.661V5.54545ZM85.5363 52.2386V49.2386H86.4823C86.9539 49.2386 87.3346 49.1818 87.6244 49.0682C87.9142 48.9489 88.1443 48.7756 88.3147 48.5483C88.4909 48.3153 88.6386 48.0256 88.7579 47.679L88.971 47.108L82.6301 34.5455H86.4482L90.5562 43.1364L93.9909 34.5455H97.7579L91.7409 48.5739C91.4511 49.2216 91.1073 49.8239 90.7096 50.3807C90.3176 50.9375 89.8147 51.3864 89.2011 51.7273C88.5874 52.0682 87.8034 52.2386 86.8488 52.2386H85.5363ZM114.1 40.6562H110.367C110.299 40.1733 110.16 39.7443 109.95 39.3693C109.739 38.9886 109.47 38.6648 109.14 38.3977C108.81 38.1307 108.43 37.9261 107.998 37.7841C107.572 37.642 107.109 37.571 106.609 37.571C105.705 37.571 104.918 37.7955 104.248 38.2443C103.578 38.6875 103.058 39.3352 102.688 40.1875C102.319 41.0341 102.134 42.0625 102.134 43.2727C102.134 44.517 102.319 45.5625 102.688 46.4091C103.063 47.2557 103.586 47.8949 104.256 48.3267C104.927 48.7585 105.703 48.9744 106.583 48.9744C107.078 48.9744 107.535 48.9091 107.955 48.7784C108.381 48.6477 108.759 48.4574 109.089 48.2074C109.418 47.9517 109.691 47.642 109.907 47.2784C110.129 46.9148 110.282 46.5 110.367 46.0341L114.1 46.0511C114.004 46.8523 113.762 47.625 113.376 48.3693C112.995 49.108 112.481 49.7699 111.833 50.3551C111.191 50.9347 110.424 51.3949 109.532 51.7358C108.646 52.071 107.643 52.2386 106.524 52.2386C104.967 52.2386 103.575 51.8864 102.347 51.1818C101.126 50.4773 100.16 49.4574 99.4497 48.1222C98.7451 46.7869 98.3928 45.1705 98.3928 43.2727C98.3928 41.3693 98.7508 39.75 99.4667 38.4148C100.183 37.0795 101.154 36.0625 102.381 35.3636C103.609 34.6591 104.989 34.3068 106.524 34.3068C107.535 34.3068 108.472 34.4489 109.336 34.733C110.205 35.017 110.975 35.4318 111.646 35.9773C112.316 36.517 112.862 37.179 113.282 37.9631C113.708 38.7472 113.981 39.6449 114.1 40.6562ZM115.801 52V49.0341L116.295 48.9915C116.931 48.9403 117.445 48.6989 117.837 48.267C118.229 47.8295 118.522 47.1335 118.715 46.179C118.914 45.2188 119.042 43.929 119.099 42.3097L119.389 34.5455H131.235V52H127.647V37.5028H122.815L122.542 43.5795C122.451 45.5341 122.218 47.1307 121.843 48.3693C121.474 49.608 120.883 50.5227 120.07 51.1136C119.264 51.7045 118.158 52 116.755 52H115.801ZM136.161 52.2386V49.2386H137.107C137.579 49.2386 137.96 49.1818 138.249 49.0682C138.539 48.9489 138.769 48.7756 138.94 48.5483C139.116 48.3153 139.264 48.0256 139.383 47.679L139.596 47.108L133.255 34.5455H137.073L141.181 43.1364L144.616 34.5455H148.383L142.366 48.5739C142.076 49.2216 141.732 49.8239 141.335 50.3807C140.943 50.9375 140.44 51.3864 139.826 51.7273C139.212 52.0682 138.428 52.2386 137.474 52.2386H136.161ZM161.962 34.5455V37.5881H154.07V52H150.379V34.5455H161.962ZM165.2 52H161.246L167.271 34.5455H172.027L178.044 52H174.09L169.717 38.5341H169.581L165.2 52ZM164.953 45.1392H174.294V48.0199H164.953V45.1392ZM180.145 34.5455H184.696L189.503 46.2727H189.707L194.514 34.5455H199.065V52H195.486V40.6392H195.341L190.824 51.9148H188.386L183.869 40.5966H183.725V52H180.145V34.5455ZM202.106 34.5455H205.788V45.5227H205.933L213.475 34.5455H216.705V52H213.015V41.0142H212.887L205.302 52H202.106V34.5455Z" fill="white"/>
</svg>
