<svg width="423" height="148" viewBox="0 0 423 148" fill="none" xmlns="http://www.w3.org/2000/svg">
<path d="M422.332 147L333.011 79H2.67923e-05" stroke="white"/>
<path d="M17.4176 11.6562H13.6847C13.6165 11.1733 13.4773 10.7443 13.267 10.3693C13.0568 9.98864 12.7869 9.66477 12.4574 9.39773C12.1278 9.13068 11.7472 8.92614 11.3153 8.78409C10.8892 8.64205 10.4261 8.57102 9.92614 8.57102C9.02273 8.57102 8.2358 8.79545 7.56534 9.24432C6.89489 9.6875 6.375 10.3352 6.00568 11.1875C5.63636 12.0341 5.4517 13.0625 5.4517 14.2727C5.4517 15.517 5.63636 16.5625 6.00568 17.4091C6.38068 18.2557 6.90341 18.8949 7.57386 19.3267C8.24432 19.7585 9.01989 19.9744 9.90057 19.9744C10.3949 19.9744 10.8523 19.9091 11.2727 19.7784C11.6989 19.6477 12.0767 19.4574 12.4062 19.2074C12.7358 18.9517 13.0085 18.642 13.2244 18.2784C13.446 17.9148 13.5994 17.5 13.6847 17.0341L17.4176 17.0511C17.321 17.8523 17.0795 18.625 16.6932 19.3693C16.3125 20.108 15.7983 20.7699 15.1506 21.3551C14.5085 21.9347 13.7415 22.3949 12.8494 22.7358C11.9631 23.071 10.9602 23.2386 9.84091 23.2386C8.28409 23.2386 6.89205 22.8864 5.66477 22.1818C4.44318 21.4773 3.47727 20.4574 2.76705 19.1222C2.0625 17.7869 1.71023 16.1705 1.71023 14.2727C1.71023 12.3693 2.06818 10.75 2.78409 9.41477C3.5 8.07955 4.47159 7.0625 5.69886 6.36364C6.92614 5.65909 8.30682 5.30682 9.84091 5.30682C10.8523 5.30682 11.7898 5.44886 12.6534 5.73295C13.5227 6.01705 14.2926 6.43182 14.9631 6.97727C15.6335 7.51704 16.179 8.17898 16.5994 8.96307C17.0256 9.74716 17.2983 10.6449 17.4176 11.6562ZM20.0639 5.54545H23.7457V16.5227H23.8906L31.4332 5.54545H34.6634V23H30.973V12.0142H30.8452L23.2599 23H20.0639V5.54545ZM53.1129 11.6562H49.38C49.3118 11.1733 49.1726 10.7443 48.9624 10.3693C48.7521 9.98864 48.4822 9.66477 48.1527 9.39773C47.8232 9.13068 47.4425 8.92614 47.0107 8.78409C46.5845 8.64205 46.1214 8.57102 45.6214 8.57102C44.718 8.57102 43.9311 8.79545 43.2607 9.24432C42.5902 9.6875 42.0703 10.3352 41.701 11.1875C41.3317 12.0341 41.147 13.0625 41.147 14.2727C41.147 15.517 41.3317 16.5625 41.701 17.4091C42.076 18.2557 42.5987 18.8949 43.2692 19.3267C43.9396 19.7585 44.7152 19.9744 45.5959 19.9744C46.0902 19.9744 46.5476 19.9091 46.968 19.7784C47.3942 19.6477 47.772 19.4574 48.1016 19.2074C48.4311 18.9517 48.7038 18.642 48.9197 18.2784C49.1413 17.9148 49.2947 17.5 49.38 17.0341L53.1129 17.0511C53.0163 17.8523 52.7749 18.625 52.3885 19.3693C52.0078 20.108 51.4936 20.7699 50.8459 21.3551C50.2038 21.9347 49.4368 22.3949 48.5447 22.7358C47.6584 23.071 46.6555 23.2386 45.5362 23.2386C43.9794 23.2386 42.5874 22.8864 41.3601 22.1818C40.1385 21.4773 39.1726 20.4574 38.4624 19.1222C37.7578 17.7869 37.4055 16.1705 37.4055 14.2727C37.4055 12.3693 37.7635 10.75 38.4794 9.41477C39.1953 8.07955 40.1669 7.0625 41.3942 6.36364C42.6214 5.65909 44.0021 5.30682 45.5362 5.30682C46.5476 5.30682 47.4851 5.44886 48.3487 5.73295C49.218 6.01705 49.9879 6.43182 50.6584 6.97727C51.3288 7.51704 51.8743 8.17898 52.2947 8.96307C52.7209 9.74716 52.9936 10.6449 53.1129 11.6562ZM55.0945 8.58807V5.54545H69.4297V8.58807H64.0859V23H60.4382V8.58807H55.0945ZM71.7905 23V5.54545H83.5518V8.58807H75.4808V12.7472H82.9467V15.7898H75.4808V19.9574H83.5859V23H71.7905ZM86.4858 5.54545H91.0369L95.8438 17.2727H96.0483L100.855 5.54545H105.406V23H101.827V11.6392H101.682L97.1648 22.9148H94.7273L90.2102 11.5966H90.0653V23H86.4858V5.54545ZM111.455 23H107.501L113.526 5.54545H118.282L124.299 23H120.344L115.972 9.53409H115.836L111.455 23ZM111.208 16.1392H120.549V19.0199H111.208V16.1392ZM131.009 23V20.0341L131.503 19.9915C132.139 19.9403 132.653 19.6989 133.045 19.267C133.438 18.8295 133.73 18.1335 133.923 17.179C134.122 16.2188 134.25 14.929 134.307 13.3097L134.597 5.54545H146.443V23H142.855V8.50284H138.023L137.75 14.5795C137.659 16.5341 137.426 18.1307 137.051 19.3693C136.682 20.608 136.091 21.5227 135.278 22.1136C134.472 22.7045 133.366 23 131.963 23H131.009ZM165.526 14.2727C165.526 16.1761 165.165 17.7955 164.443 19.1307C163.727 20.4659 162.75 21.4858 161.511 22.1903C160.278 22.8892 158.892 23.2386 157.352 23.2386C155.801 23.2386 154.409 22.8864 153.176 22.1818C151.943 21.4773 150.969 20.4574 150.253 19.1222C149.537 17.7869 149.179 16.1705 149.179 14.2727C149.179 12.3693 149.537 10.75 150.253 9.41477C150.969 8.07955 151.943 7.0625 153.176 6.36364C154.409 5.65909 155.801 5.30682 157.352 5.30682C158.892 5.30682 160.278 5.65909 161.511 6.36364C162.75 7.0625 163.727 8.07955 164.443 9.41477C165.165 10.75 165.526 12.3693 165.526 14.2727ZM161.784 14.2727C161.784 13.0398 161.599 12 161.23 11.1534C160.866 10.3068 160.352 9.66477 159.688 9.22727C159.023 8.78977 158.244 8.57102 157.352 8.57102C156.46 8.57102 155.682 8.78977 155.017 9.22727C154.352 9.66477 153.835 10.3068 153.466 11.1534C153.102 12 152.92 13.0398 152.92 14.2727C152.92 15.5057 153.102 16.5455 153.466 17.392C153.835 18.2386 154.352 18.8807 155.017 19.3182C155.682 19.7557 156.46 19.9744 157.352 19.9744C158.244 19.9744 159.023 19.7557 159.688 19.3182C160.352 18.8807 160.866 18.2386 161.23 17.392C161.599 16.5455 161.784 15.5057 161.784 14.2727ZM181.657 23H177.975V8.5625H175.487C174.776 8.5625 174.185 8.66761 173.714 8.87784C173.248 9.08239 172.898 9.38352 172.665 9.78125C172.433 10.179 172.316 10.6676 172.316 11.2472C172.316 11.821 172.433 12.3011 172.665 12.6875C172.898 13.0739 173.248 13.3636 173.714 13.5568C174.18 13.75 174.765 13.8466 175.469 13.8466H179.475V16.8125H174.873C173.538 16.8125 172.396 16.5909 171.447 16.1477C170.498 15.7045 169.773 15.0682 169.273 14.2386C168.773 13.4034 168.523 12.4062 168.523 11.2472C168.523 10.0937 168.768 9.09091 169.256 8.23864C169.751 7.38068 170.464 6.71875 171.396 6.25284C172.333 5.78125 173.461 5.54545 174.779 5.54545H181.657V23ZM172.239 15.0568H176.219L171.975 23H167.901L172.239 15.0568ZM183.743 23V20.0341L184.237 19.9915C184.874 19.9403 185.388 19.6989 185.78 19.267C186.172 18.8295 186.464 18.1335 186.658 17.179C186.857 16.2188 186.984 14.929 187.041 13.3097L187.331 5.54545H199.178V23H195.589V8.50284H190.757L190.484 14.5795C190.393 16.5341 190.161 18.1307 189.786 19.3693C189.416 20.608 188.825 21.5227 188.013 22.1136C187.206 22.7045 186.101 23 184.697 23H183.743ZM204.649 11.9972H208.808C210.195 11.9972 211.388 12.2216 212.388 12.6705C213.393 13.1136 214.169 13.7415 214.714 14.554C215.26 15.3665 215.53 16.3239 215.524 17.4261C215.53 18.5227 215.26 19.4915 214.714 20.3324C214.169 21.1676 213.393 21.821 212.388 22.2926C211.388 22.7642 210.195 23 208.808 23H202.288V5.54545H205.97V20.0341H208.808C209.473 20.0341 210.033 19.9148 210.487 19.6761C210.942 19.4318 211.286 19.1108 211.518 18.7131C211.757 18.3097 211.874 17.8693 211.868 17.392C211.874 16.6989 211.612 16.1136 211.084 15.6364C210.561 15.1534 209.803 14.9119 208.808 14.9119H204.649V11.9972ZM218.462 23V5.54545H222.153V12.7472H229.644V5.54545H233.326V23H229.644V15.7898H222.153V23H218.462ZM252.408 14.2727C252.408 16.1761 252.048 17.7955 251.326 19.1307C250.61 20.4659 249.633 21.4858 248.394 22.1903C247.161 22.8892 245.775 23.2386 244.235 23.2386C242.684 23.2386 241.292 22.8864 240.059 22.1818C238.826 21.4773 237.852 20.4574 237.136 19.1222C236.42 17.7869 236.062 16.1705 236.062 14.2727C236.062 12.3693 236.42 10.75 237.136 9.41477C237.852 8.07955 238.826 7.0625 240.059 6.36364C241.292 5.65909 242.684 5.30682 244.235 5.30682C245.775 5.30682 247.161 5.65909 248.394 6.36364C249.633 7.0625 250.61 8.07955 251.326 9.41477C252.048 10.75 252.408 12.3693 252.408 14.2727ZM248.667 14.2727C248.667 13.0398 248.482 12 248.113 11.1534C247.749 10.3068 247.235 9.66477 246.57 9.22727C245.906 8.78977 245.127 8.57102 244.235 8.57102C243.343 8.57102 242.565 8.78977 241.9 9.22727C241.235 9.66477 240.718 10.3068 240.349 11.1534C239.985 12 239.803 13.0398 239.803 14.2727C239.803 15.5057 239.985 16.5455 240.349 17.392C240.718 18.2386 241.235 18.8807 241.9 19.3182C242.565 19.7557 243.343 19.9744 244.235 19.9744C245.127 19.9744 245.906 19.7557 246.57 19.3182C247.235 18.8807 247.749 18.2386 248.113 17.392C248.482 16.5455 248.667 15.5057 248.667 14.2727ZM270.543 11.6562H266.81C266.741 11.1733 266.602 10.7443 266.392 10.3693C266.182 9.98864 265.912 9.66477 265.582 9.39773C265.253 9.13068 264.872 8.92614 264.44 8.78409C264.014 8.64205 263.551 8.57102 263.051 8.57102C262.148 8.57102 261.361 8.79545 260.69 9.24432C260.02 9.6875 259.5 10.3352 259.131 11.1875C258.761 12.0341 258.577 13.0625 258.577 14.2727C258.577 15.517 258.761 16.5625 259.131 17.4091C259.506 18.2557 260.028 18.8949 260.699 19.3267C261.369 19.7585 262.145 19.9744 263.026 19.9744C263.52 19.9744 263.977 19.9091 264.398 19.7784C264.824 19.6477 265.202 19.4574 265.531 19.2074C265.861 18.9517 266.134 18.642 266.349 18.2784C266.571 17.9148 266.724 17.5 266.81 17.0341L270.543 17.0511C270.446 17.8523 270.205 18.625 269.818 19.3693C269.438 20.108 268.923 20.7699 268.276 21.3551C267.634 21.9347 266.866 22.3949 265.974 22.7358C265.088 23.071 264.085 23.2386 262.966 23.2386C261.409 23.2386 260.017 22.8864 258.79 22.1818C257.568 21.4773 256.602 20.4574 255.892 19.1222C255.188 17.7869 254.835 16.1705 254.835 14.2727C254.835 12.3693 255.193 10.75 255.909 9.41477C256.625 8.07955 257.597 7.0625 258.824 6.36364C260.051 5.65909 261.432 5.30682 262.966 5.30682C263.977 5.30682 264.915 5.44886 265.778 5.73295C266.648 6.01705 267.418 6.43182 268.088 6.97727C268.759 7.51704 269.304 8.17898 269.724 8.96307C270.151 9.74716 270.423 10.6449 270.543 11.6562ZM272.524 8.58807V5.54545H286.859V8.58807H281.516V23H277.868V8.58807H272.524ZM289.22 5.54545H292.902V16.5227H293.047L300.589 5.54545H303.82V23H300.129V12.0142H300.001L292.416 23H289.22V5.54545ZM1.07102 56.2102V49.0597H2.25568C2.65909 48.7699 3.02841 48.3608 3.36364 47.8324C3.69886 47.2983 3.9858 46.5625 4.22443 45.625C4.46307 44.6818 4.63352 43.4489 4.7358 41.9261L5.23011 34.5455H16.7784V49.0597H18.6875V56.1932H15.142V52H4.61648V56.2102H1.07102ZM6.51705 49.0597H13.233V37.5881H8.55398L8.28125 41.9261C8.20739 43.0795 8.08523 44.1023 7.91477 44.9943C7.75 45.8864 7.5483 46.6676 7.30966 47.3381C7.0767 48.0028 6.8125 48.5767 6.51705 49.0597ZM19.9851 52V49.0341L20.4794 48.9915C21.1158 48.9403 21.63 48.6989 22.022 48.267C22.4141 47.8295 22.7067 47.1335 22.8999 46.179C23.0987 45.2188 23.2266 43.929 23.2834 42.3097L23.5732 34.5455H35.4197V52H31.8317V37.5028H26.9993L26.7266 43.5795C26.6357 45.5341 26.4027 47.1307 26.0277 48.3693C25.6584 49.608 25.0675 50.5227 24.255 51.1136C23.4482 51.7045 22.343 52 20.9396 52H19.9851ZM51.8601 52H48.1783V37.5625H45.6896C44.9794 37.5625 44.3885 37.6676 43.9169 37.8778C43.451 38.0824 43.1016 38.3835 42.8686 38.7812C42.6357 39.179 42.5192 39.6676 42.5192 40.2472C42.5192 40.821 42.6357 41.3011 42.8686 41.6875C43.1016 42.0739 43.451 42.3636 43.9169 42.5568C44.3828 42.75 44.968 42.8466 45.6726 42.8466H49.6783V45.8125H45.076C43.7408 45.8125 42.5987 45.5909 41.6499 45.1477C40.701 44.7045 39.9766 44.0682 39.4766 43.2386C38.9766 42.4034 38.7266 41.4062 38.7266 40.2472C38.7266 39.0937 38.9709 38.0909 39.4595 37.2386C39.9538 36.3807 40.6669 35.7187 41.5987 35.2528C42.5362 34.7812 43.6641 34.5455 44.9822 34.5455H51.8601V52ZM42.4425 44.0568H46.4226L42.1783 52H38.1044L42.4425 44.0568ZM60.4467 52V34.5455H64.1371V41.7472H71.6286V34.5455H75.3104V52H71.6286V44.7898H64.1371V52H60.4467ZM81.3615 52H77.407L83.4325 34.5455H88.1882L94.2053 52H90.2507L85.8786 38.5341H85.7422L81.3615 52ZM81.1143 45.1392H90.4553V48.0199H81.1143V45.1392ZM97.005 34.5455H100.61V49.0341H105.621V34.5455H109.21V49.0341H114.161V34.5455H117.749V52H97.005V34.5455ZM121.478 34.5455H125.16V45.5227H125.305L132.847 34.5455H136.077V52H132.387V41.0142H132.259L124.674 52H121.478V34.5455ZM142.587 34.5455L146.107 40.4943H146.243L149.78 34.5455H153.947L148.621 43.2727L154.067 52H149.822L146.243 46.0426H146.107L142.527 52H138.3L143.763 43.2727L138.402 34.5455H142.587ZM173.42 34.5455V37.5881H165.528V52H161.837V34.5455H173.42ZM191.026 43.2727C191.026 45.1761 190.665 46.7955 189.943 48.1307C189.227 49.4659 188.25 50.4858 187.011 51.1903C185.778 51.8892 184.392 52.2386 182.852 52.2386C181.301 52.2386 179.909 51.8864 178.676 51.1818C177.443 50.4773 176.469 49.4574 175.753 48.1222C175.037 46.7869 174.679 45.1705 174.679 43.2727C174.679 41.3693 175.037 39.75 175.753 38.4148C176.469 37.0795 177.443 36.0625 178.676 35.3636C179.909 34.6591 181.301 34.3068 182.852 34.3068C184.392 34.3068 185.778 34.6591 187.011 35.3636C188.25 36.0625 189.227 37.0795 189.943 38.4148C190.665 39.75 191.026 41.3693 191.026 43.2727ZM187.284 43.2727C187.284 42.0398 187.099 41 186.73 40.1534C186.366 39.3068 185.852 38.6648 185.188 38.2273C184.523 37.7898 183.744 37.571 182.852 37.571C181.96 37.571 181.182 37.7898 180.517 38.2273C179.852 38.6648 179.335 39.3068 178.966 40.1534C178.602 41 178.42 42.0398 178.42 43.2727C178.42 44.5057 178.602 45.5455 178.966 46.392C179.335 47.2386 179.852 47.8807 180.517 48.3182C181.182 48.7557 181.96 48.9744 182.852 48.9744C183.744 48.9744 184.523 48.7557 185.188 48.3182C185.852 47.8807 186.366 47.2386 186.73 46.392C187.099 45.5455 187.284 44.5057 187.284 43.2727ZM209.16 40.6562H205.427C205.359 40.1733 205.219 39.7443 205.009 39.3693C204.799 38.9886 204.529 38.6648 204.2 38.3977C203.87 38.1307 203.489 37.9261 203.058 37.7841C202.631 37.642 202.168 37.571 201.668 37.571C200.765 37.571 199.978 37.7955 199.308 38.2443C198.637 38.6875 198.117 39.3352 197.748 40.1875C197.379 41.0341 197.194 42.0625 197.194 43.2727C197.194 44.517 197.379 45.5625 197.748 46.4091C198.123 47.2557 198.646 47.8949 199.316 48.3267C199.987 48.7585 200.762 48.9744 201.643 48.9744C202.137 48.9744 202.594 48.9091 203.015 48.7784C203.441 48.6477 203.819 48.4574 204.148 48.2074C204.478 47.9517 204.751 47.642 204.967 47.2784C205.188 46.9148 205.342 46.5 205.427 46.0341L209.16 46.0511C209.063 46.8523 208.822 47.625 208.435 48.3693C208.055 49.108 207.54 49.7699 206.893 50.3551C206.251 50.9347 205.484 51.3949 204.592 51.7358C203.705 52.071 202.702 52.2386 201.583 52.2386C200.026 52.2386 198.634 51.8864 197.407 51.1818C196.185 50.4773 195.219 49.4574 194.509 48.1222C193.805 46.7869 193.452 45.1705 193.452 43.2727C193.452 41.3693 193.81 39.75 194.526 38.4148C195.242 37.0795 196.214 36.0625 197.441 35.3636C198.668 34.6591 200.049 34.3068 201.583 34.3068C202.594 34.3068 203.532 34.4489 204.396 34.733C205.265 35.017 206.035 35.4318 206.705 35.9773C207.376 36.517 207.921 37.179 208.342 37.9631C208.768 38.7472 209.04 39.6449 209.16 40.6562ZM211.141 37.5881V34.5455H225.477V37.5881H220.133V52H216.485V37.5881H211.141ZM227.837 52V34.5455H239.599V37.5881H231.528V41.7472H238.994V44.7898H231.528V48.9574H239.633V52H227.837ZM242.533 34.5455H246.214V45.5227H246.359L253.902 34.5455H257.132V52H253.442V41.0142H253.314L245.729 52H242.533V34.5455ZM251.533 29.9773H254.064C254.058 31.0114 253.675 31.8437 252.913 32.4744C252.158 33.1051 251.135 33.4205 249.845 33.4205C248.55 33.4205 247.524 33.1051 246.768 32.4744C246.013 31.8437 245.635 31.0114 245.635 29.9773H248.149C248.143 30.3693 248.268 30.7216 248.524 31.0341C248.786 31.3466 249.226 31.5028 249.845 31.5028C250.447 31.5028 250.879 31.3494 251.141 31.0426C251.402 30.7358 251.533 30.3807 251.533 29.9773Z" fill="white"/>
</svg>
