<svg width="370" height="96" viewBox="0 0 370 96" fill="none" xmlns="http://www.w3.org/2000/svg">
<path d="M370 95.5H40.5L1 0.5" stroke="white"/>
<path d="M96.017 67.5V50.0455H99.7074V57.2472H107.199V50.0455H110.881V67.5H107.199V60.2898H99.7074V67.5H96.017ZM129.963 58.7727C129.963 60.6761 129.602 62.2955 128.881 63.6307C128.165 64.9659 127.188 65.9858 125.949 66.6903C124.716 67.3892 123.33 67.7386 121.79 67.7386C120.239 67.7386 118.847 67.3864 117.614 66.6818C116.381 65.9773 115.406 64.9574 114.69 63.6222C113.974 62.2869 113.616 60.6705 113.616 58.7727C113.616 56.8693 113.974 55.25 114.69 53.9148C115.406 52.5795 116.381 51.5625 117.614 50.8636C118.847 50.1591 120.239 49.8068 121.79 49.8068C123.33 49.8068 124.716 50.1591 125.949 50.8636C127.188 51.5625 128.165 52.5795 128.881 53.9148C129.602 55.25 129.963 56.8693 129.963 58.7727ZM126.222 58.7727C126.222 57.5398 126.037 56.5 125.668 55.6534C125.304 54.8068 124.79 54.1648 124.125 53.7273C123.46 53.2898 122.682 53.071 121.79 53.071C120.898 53.071 120.119 53.2898 119.455 53.7273C118.79 54.1648 118.273 54.8068 117.903 55.6534C117.54 56.5 117.358 57.5398 117.358 58.7727C117.358 60.0057 117.54 61.0455 117.903 61.892C118.273 62.7386 118.79 63.3807 119.455 63.8182C120.119 64.2557 120.898 64.4744 121.79 64.4744C122.682 64.4744 123.46 64.2557 124.125 63.8182C124.79 63.3807 125.304 62.7386 125.668 61.892C126.037 61.0455 126.222 60.0057 126.222 58.7727ZM132.697 67.5V50.0455H139.685C140.969 50.0455 142.04 50.2358 142.898 50.6165C143.756 50.9972 144.401 51.5256 144.833 52.2017C145.265 52.8722 145.481 53.6449 145.481 54.5199C145.481 55.2017 145.344 55.8011 145.072 56.3182C144.799 56.8295 144.424 57.25 143.947 57.5795C143.475 57.9034 142.935 58.1335 142.327 58.2699V58.4403C142.992 58.4687 143.614 58.6562 144.194 59.0028C144.779 59.3494 145.254 59.8352 145.617 60.4602C145.981 61.0795 146.163 61.8182 146.163 62.6761C146.163 63.6023 145.933 64.429 145.472 65.1562C145.018 65.8778 144.344 66.4489 143.452 66.8693C142.56 67.2898 141.461 67.5 140.154 67.5H132.697ZM136.387 64.483H139.396C140.424 64.483 141.174 64.2869 141.646 63.8949C142.117 63.4972 142.353 62.9687 142.353 62.3097C142.353 61.8267 142.237 61.4006 142.004 61.0312C141.771 60.6619 141.438 60.3722 141.006 60.1619C140.58 59.9517 140.072 59.8466 139.481 59.8466H136.387V64.483ZM136.387 57.3494H139.123C139.629 57.3494 140.077 57.2614 140.469 57.0852C140.867 56.9034 141.18 56.6477 141.407 56.3182C141.64 55.9886 141.756 55.5938 141.756 55.1335C141.756 54.5028 141.532 53.9943 141.083 53.608C140.64 53.2216 140.009 53.0284 139.191 53.0284H136.387V57.3494ZM164.604 58.7727C164.604 60.6761 164.243 62.2955 163.521 63.6307C162.805 64.9659 161.828 65.9858 160.589 66.6903C159.357 67.3892 157.97 67.7386 156.43 67.7386C154.879 67.7386 153.487 67.3864 152.254 66.6818C151.021 65.9773 150.047 64.9574 149.331 63.6222C148.615 62.2869 148.257 60.6705 148.257 58.7727C148.257 56.8693 148.615 55.25 149.331 53.9148C150.047 52.5795 151.021 51.5625 152.254 50.8636C153.487 50.1591 154.879 49.8068 156.43 49.8068C157.97 49.8068 159.357 50.1591 160.589 50.8636C161.828 51.5625 162.805 52.5795 163.521 53.9148C164.243 55.25 164.604 56.8693 164.604 58.7727ZM160.862 58.7727C160.862 57.5398 160.678 56.5 160.308 55.6534C159.945 54.8068 159.43 54.1648 158.766 53.7273C158.101 53.2898 157.322 53.071 156.43 53.071C155.538 53.071 154.76 53.2898 154.095 53.7273C153.43 54.1648 152.913 54.8068 152.544 55.6534C152.18 56.5 151.999 57.5398 151.999 58.7727C151.999 60.0057 152.18 61.0455 152.544 61.892C152.913 62.7386 153.43 63.3807 154.095 63.8182C154.76 64.2557 155.538 64.4744 156.43 64.4744C157.322 64.4744 158.101 64.2557 158.766 63.8182C159.43 63.3807 159.945 62.7386 160.308 61.892C160.678 61.0455 160.862 60.0057 160.862 58.7727ZM182.738 56.1562H179.005C178.937 55.6733 178.798 55.2443 178.587 54.8693C178.377 54.4886 178.107 54.1648 177.778 53.8977C177.448 53.6307 177.067 53.4261 176.636 53.2841C176.21 53.142 175.746 53.071 175.246 53.071C174.343 53.071 173.556 53.2955 172.886 53.7443C172.215 54.1875 171.695 54.8352 171.326 55.6875C170.957 56.5341 170.772 57.5625 170.772 58.7727C170.772 60.017 170.957 61.0625 171.326 61.9091C171.701 62.7557 172.224 63.3949 172.894 63.8267C173.565 64.2585 174.34 64.4744 175.221 64.4744C175.715 64.4744 176.173 64.4091 176.593 64.2784C177.019 64.1477 177.397 63.9574 177.727 63.7074C178.056 63.4517 178.329 63.142 178.545 62.7784C178.766 62.4148 178.92 62 179.005 61.5341L182.738 61.5511C182.641 62.3523 182.4 63.125 182.013 63.8693C181.633 64.608 181.119 65.2699 180.471 65.8551C179.829 66.4347 179.062 66.8949 178.17 67.2358C177.283 67.571 176.281 67.7386 175.161 67.7386C173.604 67.7386 172.212 67.3864 170.985 66.6818C169.763 65.9773 168.798 64.9574 168.087 63.6222C167.383 62.2869 167.031 60.6705 167.031 58.7727C167.031 56.8693 167.388 55.25 168.104 53.9148C168.82 52.5795 169.792 51.5625 171.019 50.8636C172.246 50.1591 173.627 49.8068 175.161 49.8068C176.173 49.8068 177.11 49.9489 177.974 50.233C178.843 50.517 179.613 50.9318 180.283 51.4773C180.954 52.017 181.499 52.679 181.92 53.4631C182.346 54.2472 182.619 55.1449 182.738 56.1562ZM184.719 53.0881V50.0455H199.055V53.0881H193.711V67.5H190.063V53.0881H184.719ZM201.415 50.0455H205.097V61.0227H205.242L212.785 50.0455H216.015V67.5H212.325V56.5142H212.197L204.612 67.5H201.415V50.0455ZM224.619 50.0455H228.3V61.0227H228.445L235.988 50.0455H239.218V67.5H235.528V56.5142H235.4L227.815 67.5H224.619V50.0455ZM250.83 67.5H246.876L252.901 50.0455H257.657L263.674 67.5H259.719L255.347 54.0341H255.211L250.83 67.5ZM250.583 60.6392H259.924V63.5199H250.583V60.6392ZM276.335 67.5L270.727 60.0597H269.465V67.5H265.775V50.0455H269.465V57.017H270.207L276.002 50.0455H280.596L273.786 58.142L280.911 67.5H276.335ZM299.582 64.5511L299.369 71.625H295.858V67.5H294.631V64.5511H299.582ZM282.767 67.5V50.0455H286.312V64.5341H293.574V50.0455H297.162V67.5H282.767ZM301.822 50.0455H305.504V61.0227H305.648L313.191 50.0455H316.421V67.5H312.731V56.5142H312.603L305.018 67.5H301.822V50.0455ZM319.47 50.0455H323.152V61.0227H323.297L330.839 50.0455H334.07V67.5H330.379V56.5142H330.251L322.666 67.5H319.47V50.0455Z" fill="white"/>
</svg>
