<svg width="394" height="541" viewBox="0 0 394 541" fill="none" xmlns="http://www.w3.org/2000/svg">
<path d="M46.039 137.859C52.0012 33.7919 153.765 13.647 203.901 16.5829C328.023 25.7972 350.245 95.1753 352.956 145.312C354.582 135.013 365.151 110.081 370.571 106.693C371.926 110.532 374.636 119.159 374.636 122.954C374.636 126.748 372.829 130.858 371.926 132.439L364.164 153.442C380.425 190.841 357.924 247.617 342.793 269.975C349.839 295.992 343.696 311.756 339.405 314.014C351.871 341.657 309.82 395.994 287.236 419.707C273.686 456.293 257.199 481.362 250.65 482.717C250.02 482.537 249.377 482.363 248.721 482.197C221.714 475.338 173.119 479.63 151.732 482.717C127.883 481.091 107.468 437.774 100.241 416.32C53.0853 371.332 48.5233 325.758 52.1367 308.594C39.6704 308.594 45.1357 283.752 49.4267 271.33C32.4887 247.617 32.4887 232.712 25.7135 221.194C20.2933 211.98 23.4551 186.189 25.7135 174.445L27.7225 160.217V137.859C26.6594 134.272 25.9363 131.632 25.7135 130.406C24.3584 122.954 29.7786 93.1427 32.4887 108.726C34.6567 121.192 42.4256 133.342 46.039 137.859Z" fill="#FD3030"/>
<path d="M46.039 194.771C41.0156 179.7 31.8304 151.717 27.7225 137.859M27.7225 137.859C26.6594 134.272 25.9363 131.632 25.7135 130.406C24.3584 122.954 29.7786 93.1427 32.4887 108.726C34.6567 121.192 42.4256 133.342 46.039 137.859C52.0012 33.7919 153.765 13.647 203.901 16.5829C328.023 25.7972 350.245 95.1753 352.956 145.312C354.582 135.013 365.151 110.081 370.571 106.693C371.926 110.532 374.636 119.159 374.636 122.954C374.636 126.748 372.829 130.858 371.926 132.439L348.89 194.771M27.7225 137.859V160.217L25.7135 174.445C23.4551 186.189 20.2933 211.98 25.7135 221.194C32.4887 232.712 32.4887 247.617 49.4267 271.33C45.1357 283.752 39.6704 308.594 52.1367 308.594C48.5233 325.758 53.0853 371.332 100.241 416.32C107.468 437.774 127.883 481.091 151.732 482.717C173.119 479.63 221.714 475.338 248.721 482.197C249.377 482.363 250.02 482.537 250.65 482.717C257.199 481.362 273.686 456.293 287.236 419.707C309.82 395.994 351.871 341.657 339.405 314.014C343.696 311.756 349.839 295.992 342.793 269.975C357.924 247.617 380.425 190.841 364.164 153.442" stroke="black" stroke-width="2"/>
<path d="M92.7871 237.454C107.693 248.295 144.279 237.454 154.441 251.005" stroke="black" stroke-width="2"/>
<path d="M240.486 250.327C240.486 241.52 281.815 248.295 299.431 237.454" stroke="black" stroke-width="2"/>
<path d="M301.464 154.797C260.27 137.995 270.749 108.048 281.138 95.1753C352.142 74.5787 369.442 26.5199 369.216 5.06512C384.392 87.4515 330.371 139.214 301.464 154.797Z" fill="#FD3030" stroke="black" stroke-width="2"/>
<path d="M88.0444 154.119C145.634 148.022 127.115 100.595 110.403 91.7877C55.117 75.5272 34.9721 24.4874 31.8103 1C10.1297 68.21 60.492 132.213 88.0444 154.119Z" fill="#FD3030" stroke="black" stroke-width="2"/>
<path d="M153.766 433.258C159.412 435.516 175.988 437.729 197.127 428.515C196.675 428.515 196.991 428.515 201.87 428.515C206.748 428.515 212.484 431.677 214.742 433.258C220.84 435.742 234.797 439.22 241.843 433.258" stroke="black" stroke-width="2"/>
<path d="M224.651 459.812C228.472 461.144 232.196 462.883 235.745 465.101C232.555 463.633 228.69 461.801 224.651 459.812Z" fill="#FD3030"/>
<path d="M159.863 465.101C174.317 458.326 209.729 448.841 235.745 465.101C221.518 458.552 193.875 444.776 197.127 442.065" stroke="black" stroke-width="2"/>
<path d="M86.0137 287.591L110.404 311.982C119.212 314.466 137.234 313.066 138.86 287.591" stroke="black" stroke-width="2"/>
<path d="M87.3683 294.366C84.6582 295.044 79.1026 298.838 78.5605 308.594" stroke="black" stroke-width="2"/>
<path d="M252.682 421.062C243.196 414.965 161.894 417.675 142.246 418.352C122.598 419.03 100.786 346.194 92.8824 322.822C98.045 323.725 109.319 323.635 113.113 316.047C112.029 323.093 128.018 336.598 136.148 342.47C153.493 345.722 180.865 359.634 192.382 366.183H197.803C210.45 359.634 238.047 347.077 247.262 349.245C258.779 351.955 280.46 307.239 277.75 316.047C275.582 323.093 284.299 330.049 292.655 330.275C292.655 330.275 262.167 427.16 252.682 421.062Z" fill="black"/>
<path d="M73.139 314.014C62.9762 309.949 86.2026 324.854 92.8824 322.822M92.8824 322.822C100.786 346.194 122.598 419.03 142.246 418.352C161.894 417.675 243.196 414.965 252.682 421.062C262.167 427.16 292.655 330.275 292.655 330.275C284.299 330.049 275.582 323.093 277.75 316.047C280.46 307.239 258.779 351.955 247.262 349.245C238.047 347.077 210.45 359.634 197.803 366.183H192.382C180.865 359.634 153.493 345.722 136.148 342.47C128.018 336.598 112.029 323.093 113.113 316.047C109.319 323.635 98.045 323.725 92.8824 322.822Z" stroke="black" stroke-width="2"/>
<path d="M289.269 305.884C276.802 302.632 275.041 311.304 275.718 316.047C295.773 334.475 312.078 323.725 317.724 316.047C287.913 314.014 304.852 309.949 289.269 305.884Z" fill="#FD3030" stroke="black" stroke-width="2"/>
<path d="M116.17 368.893C131.347 367.267 138.754 356.02 140.561 350.6C153.028 354.394 155.241 360.311 154.789 362.796C149.369 368.216 136.27 370.926 130.398 371.603C119.332 371.377 100.994 370.519 116.17 368.893Z" fill="#FD3030" stroke="black" stroke-width="2"/>
<path d="M271.654 374.313C252.141 380.276 237.326 371.829 232.358 366.861C222.873 362.796 249.973 347.89 249.296 352.633C248.754 356.427 263.975 368.667 271.654 374.313Z" fill="#FD3030" stroke="black" stroke-width="2"/>
<path d="M142.246 316.047L172.734 334.34" stroke="black" stroke-width="2"/>
<path d="M184.254 340.437C183.35 343.825 182.086 351.549 184.254 355.343" stroke="black" stroke-width="2"/>
<path d="M203.223 337.05C204.126 339.534 205.933 346.535 205.933 354.665" stroke="black" stroke-width="2"/>
<path d="M56.8789 242.875C60.7182 255.747 75.8495 283.797 105.66 293.011C109.048 292.559 123.276 289.081 153.087 278.783C182.898 268.485 180.413 286.236 175.445 296.399" stroke="black" stroke-width="2"/>
<path d="M215.42 288.268C217.452 284.429 222.737 277.022 227.615 278.106" stroke="black" stroke-width="2"/>
<path d="M224.226 295.044C225.581 290.075 231.543 281.087 244.552 284.881C257.56 288.675 257.199 303.174 255.392 309.949L249.972 313.337C247.036 311.078 240.351 307.239 237.099 309.949C233.847 312.659 222.194 319.66 216.773 322.822L235.744 316.724C230.55 321.467 217.993 331.223 209.321 332.307C200.649 333.391 190.35 335.921 182.897 332.307C174.541 324.403 157.152 302.496 138.181 309.949C125.65 314.872 142.246 290.063 138.181 295.044C144.505 285.784 159.862 272.821 170.702 295.044" stroke="black" stroke-width="2"/>
<path d="M238.455 265.91C241.843 265.233 249.295 263.878 252.005 263.878C254.716 263.878 268.492 265.233 275.041 265.91C284.526 266.814 305.53 263.336 313.66 242.197" stroke="black" stroke-width="2"/>
<path d="M319.756 232.712C317.724 227.517 309.458 218.484 292.655 223.904C275.853 229.324 258.102 226.162 247.262 223.904C242.519 223.678 232.085 225.937 228.291 236.777V242.197" stroke="black" stroke-width="2"/>
<path d="M76.5269 229.324C74.2685 223.226 77.7464 213.199 109.725 221.871C141.704 230.544 146.537 229.098 144.956 227.292C151.732 229.776 165.011 236.912 163.927 245.585" stroke="black" stroke-width="2"/>
<path d="M321.111 202.901C295.817 180.091 244.28 129.593 240.486 110.081" stroke="black" stroke-width="2"/>
<path d="M243.875 126.341C256.974 145.989 288.049 187.318 307.562 195.448" stroke="black" stroke-width="2"/>
<path d="M74.4941 199.513C91.658 188.447 132.083 154.661 156.474 108.048C156.022 111.662 153.357 122.412 146.311 136.504" stroke="black" stroke-width="2"/>
<path d="M199.41 188.451C199.428 192.256 199.141 196.388 198.48 200.868C198.531 197.376 198.811 193.066 199.41 188.451Z" fill="#FD3030"/>
<path d="M179.51 150.732C187.866 153.668 203.358 167.805 198.48 200.868C198.706 185.285 203.494 153.442 220.838 150.732" stroke="black" stroke-width="2"/>
<path d="M184.93 144.634L198.48 156.152L211.353 144.634" stroke="black" stroke-width="2"/>
<path d="M286.559 329.597C251.328 438.678 249.295 405.931 239.132 410.899H161.895C149.429 417.946 134.568 392.155 129.374 378.379L101.596 330.952" stroke="#FD3030" stroke-width="2"/>
<path d="M252.682 387.186C253.766 397.485 246.359 406.383 242.52 409.544C247.398 417.675 255.392 409.319 258.78 404.124C256.296 394.187 251.598 376.888 252.682 387.186Z" fill="#FD3030" stroke="#FD3030" stroke-width="2"/>
<path d="M153.764 389.219C149.97 398.975 153.99 406.834 156.475 409.544C152.861 409.544 145.363 408.46 144.279 404.124C142.924 398.704 158.507 377.023 153.764 389.219Z" fill="#FD3030" stroke="#FD3030" stroke-width="2"/>
<path d="M157.153 402.769L155.798 407.512C152.636 407.06 147.261 406.834 151.055 409.544C154.849 412.255 159.863 411.125 161.895 410.222H241.165L247.263 402.769L245.23 401.414L234.39 404.124V408.189L228.97 402.769H218.129L216.097 407.512L214.064 402.769H197.126L195.094 409.544L192.384 402.769H175.446L172.736 407.512V402.769H157.153Z" fill="#FD3030"/>
<path d="M155.798 367.538L152.41 359.408H153.765C165.509 367.99 197.533 380.682 231.68 362.796V367.538V369.571L220.162 375.668L218.129 369.571V375.668C218.129 378.921 202.772 380.185 195.094 380.411L192.384 374.313C192.384 375.894 192.113 379.327 191.029 380.411C189.945 381.495 177.478 377.701 171.381 375.668L167.993 369.571L166.638 372.958L155.798 367.538Z" fill="#FD3030"/>
<path d="M157.153 402.769L155.798 407.512C152.636 407.06 147.261 406.834 151.055 409.544C154.849 412.255 159.863 411.125 161.895 410.222H241.165L247.263 402.769L245.23 401.414L234.39 404.124V408.189L228.97 402.769H218.129L216.097 407.512L214.064 402.769H197.126L195.094 409.544L192.384 402.769H175.446L172.736 407.512V402.769H157.153Z" stroke="#FD3030" stroke-width="2"/>
<path d="M155.798 367.538L152.41 359.408H153.765C165.509 367.99 197.533 380.682 231.68 362.796V367.538V369.571L220.162 375.668L218.129 369.571V375.668C218.129 378.921 202.772 380.185 195.094 380.411L192.384 374.313C192.384 375.894 192.113 379.327 191.029 380.411C189.945 381.495 177.478 377.701 171.381 375.668L167.993 369.571L166.638 372.958L155.798 367.538Z" stroke="#FD3030" stroke-width="2"/>
<path d="M163.928 232.712C172.284 230.905 190.08 223.768 194.416 209.676C196.223 215.322 203.901 227.427 220.162 230.679" stroke="black" stroke-width="2"/>
<path d="M173.412 244.23C178.155 239.713 188.589 230.679 192.383 230.679C196.177 230.679 199.835 230.679 201.19 230.679C205.03 232.486 213.792 237.319 218.128 242.197" stroke="black" stroke-width="2"/>
<path d="M172.058 158.862C186.285 169.477 204.307 197.481 162.572 224.582" stroke="black" stroke-width="2"/>
<path d="M222.871 160.217C209.998 167.444 192.654 190.841 226.259 226.614" stroke="black" stroke-width="2"/>
<path d="M158.508 184.608C151.732 184.382 145.635 176.071 170.025 155.475L190.351 132.439C191.029 132.213 192.519 130.542 193.061 125.664C193.603 120.786 193.287 106.016 193.061 99.2404" stroke="black" stroke-width="2"/>
<path d="M238.455 185.285C243.423 185.285 247.805 179.594 225.582 156.83C217.678 147.796 202.411 128.78 204.579 124.986L201.191 73.4946" stroke="black" stroke-width="2"/>
<path d="M313.659 204.256C254.904 173.676 230.791 137.212 203.9 36.9086" stroke="black" stroke-width="2"/>
<path d="M71.7852 204.256C118.35 199.676 193.173 92.8431 194.416 36.231" stroke="black" stroke-width="2"/>
<path d="M172.735 179.188C178.832 197.255 168.128 228.782 76.5269 210.354C75.6236 208.547 72.8683 206.424 69.0742 212.386" stroke="black" stroke-width="2"/>
<path d="M222.923 179.865C216.788 197.849 228.28 231.255 320.434 212.911C321.343 211.112 325.425 209.839 329.242 215.774" stroke="black" stroke-width="2"/>
<path d="M133.439 345.18C144.506 354.44 172.194 372.823 194.416 372.281C216.639 371.739 239.358 359.408 247.94 353.31" stroke="#FD3030" stroke-width="2"/>
<path d="M162.572 257.78C162.546 257.237 162.5 256.664 162.433 256.067C160.52 252.718 148.723 252.164 142.247 252.36C104.848 265.91 86.916 246.714 82.625 235.422C106.338 213.064 109.726 236.777 135.472 233.389C154.86 230.838 161.36 246.497 162.433 256.067C162.722 256.572 162.785 257.141 162.572 257.78Z" fill="#FD3030"/>
<path d="M162.572 257.78C162.121 248.521 156.068 230.679 135.472 233.389C109.726 236.777 106.338 213.064 82.625 235.422C86.916 246.714 104.848 265.91 142.247 252.36C149.699 252.134 164.198 252.902 162.572 257.78Z" stroke="black" stroke-width="2"/>
<path d="M233.839 261.168C233.863 260.665 233.899 260.131 233.949 259.57C235.761 256.542 247.544 257.58 254.038 257.78C291.379 271.521 305.53 237.454 307.562 234.067C276.397 221.194 285.164 237.502 259.459 234.067C239.995 231.466 234.829 249.655 233.949 259.57C233.685 260.011 233.632 260.539 233.839 261.168Z" fill="#FD3030"/>
<path d="M233.839 261.168C234.29 251.779 238.895 231.319 259.459 234.067C285.164 237.502 276.397 221.194 307.562 234.067C305.53 237.454 291.379 271.521 254.038 257.78C246.597 257.551 232.215 256.221 233.839 261.168Z" stroke="black" stroke-width="2"/>
<path d="M84.6582 247.617C89.5234 255.004 100.266 270.46 155.798 262.523" stroke="black" stroke-width="2"/>
<path d="M330.598 257.78C320.209 275.396 297.149 303.048 275.719 292.334C241.843 275.396 222.195 284.881 222.872 292.334" stroke="black" stroke-width="2"/>
<circle cx="262.846" cy="245.585" r="10.5178" fill="black" stroke="black" stroke-width="2"/>
<circle cx="130.051" cy="244.23" r="10.5178" fill="black" stroke="black" stroke-width="2"/>
<path d="M249.295 374.991L307.597 408.983C315.015 396.672 363.086 400.737 363.086 430.198C383.754 436.725 402.415 448.841 386.154 485.427C401.06 493.557 387.51 539.628 357.699 526.755C325.178 553.314 303.045 531.046 296.044 516.593C258.645 519.303 264.201 494.686 271.654 482.039L243.198 440.033C225.311 414.558 224.001 394.639 225.582 387.864L220.162 376.346L232.357 370.248V366.861C232.357 367.945 243.649 372.733 249.295 374.991Z" fill="white"/>
<path d="M363.086 430.198C363.086 400.737 315.015 396.672 307.597 408.983L249.295 374.991C243.649 372.733 232.357 367.945 232.357 366.861C232.357 365.777 232.357 368.667 232.357 370.248L220.162 376.346L225.582 387.864C224.001 394.639 225.311 414.558 243.198 440.033L271.654 482.039C264.201 494.686 258.645 519.303 296.044 516.593C303.045 531.046 325.178 553.314 357.699 526.755C387.51 539.628 401.06 493.557 386.154 485.427C402.415 448.841 383.754 436.725 363.086 430.198ZM363.086 430.198C363.13 434.456 362.618 439.328 361.449 444.885L363.086 430.198Z" stroke="black" stroke-width="2"/>
<path d="M260.812 412.932L303.986 462.662C314.453 461.005 334.796 463.657 332.442 487.527C328.844 495.153 316.546 507.021 296.136 493.495" stroke="black" stroke-width="2"/>
<path d="M320.436 445.453C326.704 448.081 336.203 456.096 324.052 467.134" stroke="black" stroke-width="2"/>
<path d="M352.956 442.065C371.249 442.065 384.122 494.912 344.148 489.492" stroke="black" stroke-width="2"/>
<path d="M278.43 408.189L297.4 423.772" stroke="black" stroke-width="2"/>
<path d="M138.216 372.119L82.6963 404.49C75.6321 392.765 29.855 396.636 29.855 424.692C10.1725 430.908 -7.59773 442.445 7.88689 477.285C-6.30736 485.028 6.5965 528.901 34.985 516.642C65.9542 541.934 87.0305 520.728 93.6974 506.964C129.312 509.545 124.021 486.103 116.924 474.059L144.022 434.057C161.056 409.798 162.303 390.83 160.797 384.378L165.959 373.409L154.346 367.603V364.377C154.346 365.409 143.592 369.968 138.216 372.119Z" fill="white"/>
<path d="M29.855 424.692C29.855 396.636 75.6321 392.765 82.6963 404.49L138.216 372.119C143.592 369.968 154.346 365.409 154.346 364.377C154.346 363.344 154.346 366.097 154.346 367.603L165.959 373.409L160.797 384.378C162.303 390.83 161.056 409.798 144.022 434.057L116.924 474.059C124.021 486.103 129.312 509.545 93.6975 506.964C87.0305 520.728 65.9542 541.934 34.985 516.642C6.59649 528.901 -6.30735 485.028 7.88688 477.285C-7.59774 442.445 10.1725 430.908 29.855 424.692ZM29.855 424.692C29.8124 428.747 30.2999 433.386 31.414 438.678L29.855 424.692Z" stroke="black" stroke-width="2"/>
<path d="M127.248 408.25L86.1344 455.607C76.1674 454.028 56.7942 456.554 59.0367 479.286C62.4629 486.547 74.1741 497.85 93.6096 484.969" stroke="black" stroke-width="2"/>
<path d="M70.4707 439.219C64.5015 441.722 55.4559 449.354 67.0269 459.865" stroke="black" stroke-width="2"/>
<path d="M39.5012 435.993C22.081 435.993 9.82232 486.318 47.8887 481.157" stroke="black" stroke-width="2"/>
<path d="M110.473 403.733L92.4073 418.573" stroke="black" stroke-width="2"/>
</svg>
