<svg width="41" height="40" viewBox="0 0 41 40" fill="none" xmlns="http://www.w3.org/2000/svg">
<rect x="0.949219" width="39.9844" height="40" rx="10" fill="white"/>
<path fill-rule="evenodd" clip-rule="evenodd" d="M7.19678 0H34.686C38.1365 0 40.9336 2.79822 40.9336 6.25V33.75C40.9336 37.2018 38.1365 40 34.686 40H7.19678C3.74635 40 0.949219 37.2018 0.949219 33.75V6.25C0.949219 2.79822 3.74635 0 7.19678 0ZM21.8059 15.0092C20.0153 15.7543 16.4368 17.2963 11.0702 19.6354C10.1987 19.9821 9.7422 20.3212 9.70065 20.6528C9.63041 21.2133 10.332 21.434 11.2874 21.7345C11.4173 21.7754 11.552 21.8177 11.69 21.8626C12.6299 22.1683 13.8943 22.5259 14.5516 22.5401C15.1478 22.553 15.8133 22.3071 16.548 21.8024C21.5622 18.4163 24.1505 16.7049 24.313 16.668C24.4277 16.6419 24.5865 16.6092 24.6942 16.7049C24.8018 16.8006 24.7912 16.9819 24.7798 17.0305C24.7103 17.3269 21.9564 19.8882 20.5312 21.2137C20.0869 21.6269 19.7718 21.92 19.7073 21.987C19.563 22.1369 19.4159 22.2788 19.2746 22.4151C18.4014 23.2572 17.7465 23.8887 19.3108 24.92C20.0626 25.4156 20.6641 25.8254 21.2642 26.2342C21.9196 26.6807 22.5733 27.1261 23.4191 27.6807C23.6346 27.822 23.8404 27.9688 24.0408 28.1118C24.8036 28.6557 25.4888 29.1444 26.3354 29.0665C26.8273 29.0212 27.3354 28.5585 27.5935 27.1784C28.2033 23.9169 29.4021 16.8501 29.6791 13.9381C29.7034 13.6829 29.6728 13.3564 29.6483 13.2131C29.6238 13.0698 29.5726 12.8655 29.3863 12.7144C29.1658 12.5353 28.8253 12.4976 28.673 12.5001C27.9806 12.5125 26.9183 12.882 21.8059 15.0092Z" fill="black"/>
</svg>
