<svg width="41" height="40" viewBox="0 0 41 40" fill="none" xmlns="http://www.w3.org/2000/svg">
<rect x="0.924316" width="39.9844" height="40" rx="10" fill="white"/>
<path fill-rule="evenodd" clip-rule="evenodd" d="M16.6682 27.125C17.9177 27.875 19.4171 28.25 20.9165 28.25C25.5397 28.25 29.1633 24.5 29.1633 20.125C29.1633 17.875 28.4136 15.875 26.7892 14.25C25.1649 12.75 23.1656 11.875 20.9165 11.875C16.4183 11.875 12.6697 15.625 12.6697 20.125C12.6697 21.625 13.0446 23.125 13.9192 24.5L14.1692 24.875L13.2945 27.875L16.4183 27L16.6682 27.125ZM23.6654 21.25C23.9153 21.25 25.1649 21.875 25.4148 22C25.4537 22.0195 25.4926 22.0359 25.531 22.0521C25.7395 22.1402 25.934 22.2223 26.0395 22.75C26.1645 22.75 26.1645 23.25 25.9146 23.875C25.7896 24.375 24.79 25 24.2902 25C24.2055 25 24.1244 25.0072 24.0378 25.0148C23.6132 25.0524 23.0556 25.1018 21.2913 24.375C19.1016 23.4988 17.5835 21.3749 17.1571 20.7785C17.0969 20.6942 17.0585 20.6405 17.043 20.625C17.0217 20.5824 16.9787 20.5145 16.922 20.4249C16.6456 19.9883 16.0434 19.0372 16.0434 18C16.0434 16.75 16.6682 16.125 16.9181 15.875C17.168 15.625 17.4179 15.625 17.5428 15.625H18.0426C18.1676 15.625 18.4175 15.625 18.5424 16C18.7923 16.5 19.2922 17.75 19.2922 17.875C19.2922 17.9167 19.306 17.9583 19.3199 18C19.3477 18.0833 19.3755 18.1667 19.2922 18.25C19.2297 18.3125 19.1984 18.375 19.1672 18.4375C19.136 18.5 19.1047 18.5625 19.0422 18.625L18.6674 19C18.5425 19.125 18.4175 19.25 18.5424 19.5C18.6674 19.75 19.1672 20.625 19.9169 21.25C20.7605 21.9884 21.426 22.2817 21.7635 22.4304C21.8259 22.4579 21.8771 22.4805 21.9161 22.5C22.166 22.5 22.291 22.5 22.4159 22.375C22.4784 22.25 22.6346 22.0625 22.7908 21.875C22.947 21.6875 23.1031 21.5 23.1656 21.375C23.2906 21.125 23.4156 21.125 23.6654 21.25Z" fill="black"/>
<path fill-rule="evenodd" clip-rule="evenodd" d="M0.924316 6.25C0.924316 2.79822 3.72144 0 7.17188 0H34.6611C38.1116 0 40.9087 2.79822 40.9087 6.25V33.75C40.9087 37.2018 38.1116 40 34.6611 40H7.17188C3.72144 40 0.924316 37.2018 0.924316 33.75V6.25ZM20.9165 10C23.5405 10 26.0395 11 27.9138 12.875C29.788 14.75 30.9126 17.25 30.9126 19.875C30.9126 25.375 26.4144 29.875 20.9165 29.875C19.2921 29.875 17.6678 29.375 16.1684 28.625L10.9204 30L12.2949 25C11.4202 23.5 10.9204 21.75 10.9204 20C10.9204 14.5 15.4187 10 20.9165 10Z" fill="black"/>
</svg>
